<?xml version="1.0" encoding="UTF-8" standalone="no"?>
<svg
   width="36.351986"
   height="40"
   viewBox="0 0 36.351986 40"
   fill="none"
   version="1.1"
   id="svg828"
   xmlns="http://www.w3.org/2000/svg">
  <defs
     id="defs832" />
  <path
     fill-rule="evenodd"
     clip-rule="evenodd"
     d="m 33.5473,13.2432 v 4.3582 L 20.9122,10.3378 26.5203,7.09459 31.723,10.1014 c 1.1148,0.6418 1.8243,1.8581 1.8243,3.1418 z M 2.83784,22.3986 15.473,29.6959 9.86486,32.9392 4.66216,29.9324 C 3.5473,29.2905 2.83784,28.0743 2.83784,26.7905 Z m 8.34456,1.6892 V 17.5 l 12.7027,7.3311 -5.6756,3.277 z m 7.0271,-12.1959 7.027,4.054 V 22.5 L 12.5338,15.1689 Z m 0,-9.02028 c 0.6419,0 1.2837,0.16892 1.8243,0.47297 L 23.8176,5.54054 11.1824,12.8378 V 6.38514 L 16.4189,3.37838 C 16.9257,3.04054 17.5676,2.87162 18.2095,2.87162 Z M 4.66216,10.1014 8.44595,7.90541 V 22.5 L 2.83784,19.2905 v -6.0473 c 0,-1.2837 0.70946,-2.5 1.82432,-3.1418 z M 25.2365,33.6486 20,36.6554 c -0.5405,0.3041 -1.1824,0.473 -1.8243,0.473 -0.6419,0 -1.2838,-0.1689 -1.8243,-0.473 l -3.7838,-2.1959 12.6351,-7.2973 z m 6.4865,-3.7162 -3.7838,2.1622 V 17.5 l 5.6081,3.2095 v 6.0473 c 0,1.3175 -0.7095,2.5337 -1.8243,3.1756 z M 33.1419,7.63514 21.4527,0.878378 C 20.473,0.304054 19.3243,0 18.2095,0 17.0608,0 15.9459,0.304054 14.9662,0.878378 L 3.27703,7.63514 C 1.25,8.78378 0,10.9459 0,13.2432 v 13.5136 c 0,2.2973 1.25,4.4594 3.24324,5.6081 L 14.9324,39.1216 C 15.9122,39.6959 17.027,40 18.1757,40 c 1.1486,0 2.2635,-0.3041 3.2432,-0.8784 l 11.6892,-6.7567 c 1.9932,-1.1487 3.2432,-3.3108 3.2432,-5.6081 V 13.2432 C 36.3851,10.9459 35.1689,8.78378 33.1419,7.63514 Z"
     fill="#462de0"
     id="path826" />
</svg>
