<?xml version="1.0" encoding="utf-8"?>
<!-- Generator: Adobe Illustrator 23.1.1, SVG Export Plug-In . SVG Version: 6.00 Build 0)  -->
<svg version="1.1" id="Layer_1" xmlns="http://www.w3.org/2000/svg" xmlns:xlink="http://www.w3.org/1999/xlink" x="0px" y="0px"
	 viewBox="0 0 300 225" style="enable-background:new 0 0 300 225;" xml:space="preserve">
<style type="text/css">
	.st0{fill-rule:evenodd;clip-rule:evenodd;fill:#462DE0;}
</style>
<title>Letter Copy 4</title>
<desc>Created with Sketch.</desc>
<g id="Letter-Copy-4">
	<g id="Group-14" transform="translate(21.500000, 24.000000)">
		<g id="Group-13" transform="translate(0.000000, 0.170992)">
			<g id="Group-4" transform="translate(36.959288, 132.697201)">
			</g>
			<path id="Combined-Shape" class="st0" d="M84,173.7v-57.4h8.6v57.4H84z M0,116.3h8.5v35.4l14.7-18.1h10.9l-16.7,19.1l17.9,21
				H24.5l-16-19.1v19.1H0V116.3z M54.7,155.8c-2.1,0-9,0.4-9,6.1c0,1.1,0.5,4.9,7.2,4.9c1,0,9.6-0.2,12.8-5.4l0,0v-3.2l-0.1,0
				C61.6,156.5,57.3,155.8,54.7,155.8z M52.6,174.6c-9.4,0-15.2-4.8-15.2-12.6c0-8.1,6.3-12.8,17.2-12.8c3.6,0,7.3,0.9,11,2.6
				l0.3,0.1v-2.1c0-5.6-4.1-9.3-10.4-9.3c-4.3,0-8.9,2.2-11.4,5.4l-4.9-5.2c5-6.9,12.7-7.9,16.9-7.9c11.8,0,18.3,6,18.3,17v24h-8.5
				v-4.7l-0.3,0.4C61.9,173.9,55.9,174.6,52.6,174.6z M120.9,140.2c-6.5,0-11.3,4-12.1,10.1l0,0.2h23.9l0-0.2
				C131.7,144.1,127.2,140.2,120.9,140.2z M120.9,174.6c-11.9,0-20.6-8.8-20.6-21c0-6.1,2.1-11.3,6-15.2c3.7-3.6,8.9-5.6,14.6-5.6
				c11.8,0,20.1,8.5,20.1,20.8c0,0.9,0,2.2-0.1,3.1h-32.2l0,0.2c0.9,6.2,5.8,10.3,12.6,10.3c4.7,0,9-2.3,11.1-5.7
				c1.3,0.6,2.8,1.3,4.3,1.9c0.9,0.4,1.8,0.8,2.7,1.2C136.1,170.8,129.2,174.6,120.9,174.6z M148.4,173.7v-40.1h8.5v40.1H148.4z
				 M185.4,141.1c-7.1,0-12.3,5.2-12.3,12.5c0,7.4,5.2,12.7,12.3,12.7c6.2,0,12.6-4.4,12.6-12.7
				C197.9,145.4,191.4,141.1,185.4,141.1z M184.2,174.6c-11.4,0-20-9-20-20.9c0-12.1,8.4-20.9,20-20.9c6,0,11.2,2.5,13.5,6.6
				l0.3,0.6v-23.6h8.5v57.4h-8.5v-6.4l-0.3,0.6C195.4,171.9,190.1,174.6,184.2,174.6z M235.4,141.1c-7.2,0-12.4,5.2-12.4,12.4
				c0,7.4,5.2,12.7,12.4,12.7c7.2,0,12.5-5.4,12.5-12.7C247.9,146.4,242.7,141.1,235.4,141.1z M235.4,174.6c-5.6,0-10.8-2-14.7-5.7
				c-4-3.8-6.2-9.3-6.2-15.3c0-12,8.8-20.8,20.9-20.8c12.2,0,21,8.7,21,20.8c0,6-2.2,11.4-6.2,15.3
				C246.4,172.5,241.1,174.6,235.4,174.6z M152.6,126c-3.2,0-5.8-2.4-5.8-5.4c0-3,2.6-5.4,5.8-5.4c3.2,0,5.7,2.4,5.7,5.4
				C158.3,123.6,155.8,126,152.6,126z"/>
			<path id="Fill-12" class="st0" d="M163.5,32.3v10.6L133,25.2l13.5-7.8l12.6,7.3C161.8,26.2,163.5,29.1,163.5,32.3L163.5,32.3z
				 M89.4,54.3l30.5,17.6l-13.5,7.8l-12.6-7.3c-2.7-1.6-4.4-4.5-4.4-7.6V54.3z M109.5,58.4V42.5l30.7,17.7l-13.7,7.9L109.5,58.4z
				 M126.5,29l17,9.8v15.8l-30.7-17.7L126.5,29z M126.5,7.2c1.5,0,3.1,0.4,4.4,1.2l9.1,5.3l-30.5,17.6l0-15.6l12.6-7.3
				C123.4,7.6,124.9,7.2,126.5,7.2L126.5,7.2z M93.8,24.6l9.1-5.3v35.2l-13.5-7.8V32.3C89.4,29.1,91.1,26.2,93.8,24.6L93.8,24.6z
				 M143.5,81.5l-12.6,7.3c-1.3,0.8-2.9,1.2-4.4,1.2c-1.5,0-3.1-0.4-4.4-1.2l-9.1-5.3l30.5-17.6L143.5,81.5z M159.1,72.5l-9.1,5.3
				V42.5l13.5,7.8v14.6C163.5,68,161.8,70.9,159.1,72.5L159.1,72.5z M162.5,18.7L134.3,2.4c-2.4-1.4-5.1-2.1-7.8-2.1
				c-2.8,0-5.5,0.7-7.8,2.1L90.4,18.7c-4.8,2.8-7.8,8-7.8,13.6v32.6c0,5.6,3,10.8,7.8,13.6l28.3,16.3c2.4,1.4,5.1,2.1,7.8,2.1
				c2.8,0,5.5-0.7,7.8-2.1l28.3-16.3c4.8-2.8,7.8-8,7.8-13.6V32.3C170.4,26.7,167.4,21.5,162.5,18.7L162.5,18.7z"/>
		</g>
	</g>
</g>
</svg>
